<svg width="62" height="62" viewBox="0 0 62 62" fill="none" xmlns="http://www.w3.org/2000/svg">
<path d="M35.7494 23.2714L35.7495 23.2715C35.949 23.8952 36.5441 24.3122 37.1513 24.3122H39.8103C40.6234 24.3122 41.2239 23.67 41.2239 22.8486V22.6751V22.6535L41.2202 22.6322C40.5507 18.7902 37.5789 15.7921 33.7446 15.3404V11.4041C33.7446 10.5586 33.1267 9.96204 32.216 9.77185L32.1907 9.76657H32.1649H29.6719C28.8404 9.76657 28.2751 10.4245 28.0962 11.357L28.0918 11.3803V11.4041V15.1764C23.1235 15.9541 19.9476 19.475 19.9476 23.8891C19.9476 26.8035 20.7975 28.8783 22.5745 30.3252C24.3332 31.7572 26.9657 32.5443 30.4644 32.9795C32.7873 33.4128 34.2696 33.8821 35.1732 34.5584C35.6186 34.8917 35.9218 35.2746 36.1162 35.7321C36.312 36.1929 36.4028 36.7422 36.4028 37.4145C36.4028 40.0126 34.229 41.8461 31.1676 41.8461C29.0411 41.8461 27.651 41.3767 26.7344 40.624C25.8191 39.8723 25.3398 38.8081 25.0968 37.5406L25.0971 37.5405L25.0944 37.5295C24.9043 36.735 24.3139 36.2972 23.6881 36.2972H20.8622C20.0496 36.2972 19.449 36.9393 19.449 37.7613V37.9345V37.9535L19.4519 37.9724C19.7905 40.181 20.6405 42.0978 22.1193 43.5735C23.5604 45.0115 25.5807 46.0128 28.2581 46.47V50.4195C28.2581 51.2648 28.8758 51.8611 29.7864 52.0514L29.8117 52.0567H29.8375H32.3309C33.1621 52.0567 33.7276 51.399 33.9065 50.4666L33.911 50.4432V50.4195V46.4663C38.8864 45.517 42.2212 41.821 42.2212 37.0673C42.2212 33.9801 41.3301 31.86 39.509 30.4125C37.7072 28.9803 35.0307 28.2373 31.5326 27.8028C29.0483 27.457 27.6145 26.9439 26.7996 26.2557C26.0067 25.586 25.7663 24.72 25.7663 23.542C25.7663 22.3888 26.1585 21.4675 26.9231 20.8294C27.6942 20.1859 28.876 19.8038 30.5028 19.8038C31.9728 19.8038 33.0815 20.06 33.9185 20.6083C34.7511 21.1537 35.3461 22.0088 35.7494 23.2714Z" fill="white" stroke="white" stroke-width="0.5"/>
<path d="M7.96493 22.0663L7.96496 22.0663L7.96631 22.0624C10.4354 14.8498 15.8664 9.35695 22.6117 6.78233L22.6253 6.77715L22.6382 6.77045C23.0019 6.58081 23.2907 6.33484 23.4859 6.0039C23.6805 5.67392 23.7699 5.2801 23.7699 4.81458V2.3871C23.7699 2.00104 23.6773 1.64454 23.4757 1.35534C23.2723 1.06359 22.9702 0.858202 22.5856 0.758065L22.5546 0.75H22.5226L22.5182 0.75C22.4357 0.749991 22.2933 0.749976 22.1473 0.775325C22.0207 0.797311 21.8593 0.843366 21.7281 0.952601C5.8333 6.22088 -2.84623 23.8582 2.17144 40.4345L2.1718 40.4357C5.18444 50.2138 12.3817 57.73 21.7602 60.8814C22.151 61.079 22.5593 61.0836 22.9011 60.919C23.2284 60.7615 23.472 60.46 23.5802 60.0777C23.7707 59.8452 23.7703 59.5912 23.7699 59.3041C23.7699 59.2905 23.7699 59.2769 23.7699 59.2632V56.8356C23.7699 56.5047 23.6157 56.152 23.4165 55.852C23.2141 55.5469 22.9433 55.2631 22.6654 55.0696L22.6397 55.0516L22.6103 55.0406C9.7808 50.2363 3.18845 35.2968 7.96493 22.0663ZM39.4144 61.2419L39.4454 61.25H39.4774H39.4818C39.5643 61.25 39.7066 61.25 39.8526 61.2247C39.9793 61.2027 40.1406 61.1566 40.2717 61.0473C56.1665 55.779 64.8462 38.1418 59.8286 21.5652C56.8157 11.6117 49.4512 4.09646 40.2403 0.945282C39.8493 0.747507 39.4409 0.742747 39.0989 0.907443C38.7716 1.06501 38.528 1.36659 38.4197 1.74891C38.2293 1.98167 38.2297 2.23518 38.2301 2.52271C38.2301 2.53622 38.2301 2.54981 38.2301 2.56348V4.99095C38.2301 5.79134 38.7919 6.55275 39.3346 6.93035L39.3604 6.94826L39.3897 6.95926C52.2192 11.7637 58.8114 26.703 54.035 39.9336L54.035 39.9336L54.0336 39.9375C51.5647 47.1501 46.1336 52.6431 39.3883 55.2175L39.3747 55.2227L39.3618 55.2295C38.9981 55.4191 38.7093 55.6651 38.5141 55.996C38.3195 56.3259 38.2301 56.7196 38.2301 57.1851V59.6128C38.2301 59.9988 38.3228 60.3553 38.5244 60.6445C38.7277 60.9363 39.0298 61.1417 39.4144 61.2419Z" fill="white" stroke="white" stroke-width="0.5"/>
</svg>
