<?xml version="1.0" encoding="UTF-8" standalone="no"?>
<svg
   width="26"
   height="52"
   fill="#ffffff"
   viewBox="0 0 26 52"
   version="1.1"
   id="svg135"
   sodipodi:docname="link-icon.svg"
   inkscape:version="1.2.2 (b0a8486541, 2022-12-01)"
   xmlns:inkscape="http://www.inkscape.org/namespaces/inkscape"
   xmlns:sodipodi="http://sodipodi.sourceforge.net/DTD/sodipodi-0.dtd"
   xmlns="http://www.w3.org/2000/svg"
   xmlns:svg="http://www.w3.org/2000/svg">
  <defs
     id="defs139" />
  <sodipodi:namedview
     id="namedview137"
     pagecolor="#ffffff"
     bordercolor="#666666"
     borderopacity="1.0"
     inkscape:showpageshadow="2"
     inkscape:pageopacity="0.0"
     inkscape:pagecheckerboard="0"
     inkscape:deskcolor="#d1d1d1"
     showgrid="false"
     inkscape:zoom="7.375"
     inkscape:cx="3.5254237"
     inkscape:cy="16.067797"
     inkscape:window-width="1890"
     inkscape:window-height="1030"
     inkscape:window-x="15"
     inkscape:window-y="15"
     inkscape:window-maximized="1"
     inkscape:current-layer="svg135" />
  <path
     d="m 21.889654,8.2062498 h 0.706387 L 22.240816,7.5956967 C 20.944635,5.3679843 18.87861,3.6389599 16.392279,2.7876549 l -0.983125,-0.3366025 0.494081,0.9141275 c 0.763182,1.4117919 1.349482,2.9404699 1.757844,4.5355699 l 0.07824,0.3055 h 0.315331 z m -8.6619,-5.7853492 -0.3341,-0.4830556 -0.334099,0.4830556 C 11.457073,4.0148793 10.593142,5.7822455 10.021629,7.683016 L 9.8642481,8.2062498 h 0.5464059 4.966 0.546406 L 15.765679,7.683016 C 15.194167,5.7822455 14.330235,4.0148793 13.227754,2.4209006 Z M 2.4375352,15.698556 2.5144627,16.00625 H 2.8316546 7.2256544 7.6841239 L 7.6289551,15.551087 C 7.5258407,14.7004 7.4499045,13.8606 7.4499045,13 c 0,-0.8606 0.075937,-1.7004 0.1790506,-2.551088 L 7.6841239,9.9937498 H 7.2256544 2.8316546 2.5144627 L 2.437535,10.301443 C 2.2230757,11.159281 2.0874044,12.063756 2.0874044,13 c 0,0.936243 0.1356713,1.840719 0.3501308,2.698556 z m 1.4601193,2.095193 H 3.1934202 l 0.35256,0.60962 c 1.2967661,2.242337 3.3636362,3.958012 5.8490492,4.808943 L 10.378154,23.548931 9.8840731,22.634787 C 9.1208919,21.222987 8.534592,19.69435 8.1262295,18.09925 L 8.0479857,17.793749 H 7.7326545 Z m 3.835,-9.5874992 h 0.3153312 l 0.078244,-0.3055 C 8.534592,6.3056498 9.1208919,4.7769718 9.8840731,3.3651799 L 10.378154,2.4510524 9.3950294,2.7876549 C 6.9096164,3.638643 4.8427463,5.3542937 3.5459802,7.596623 l -0.35256,0.6096268 h 0.7042343 z m 4.8269005,15.3728242 0.334099,0.483113 0.3341,-0.483113 c 1.102481,-1.593962 1.966413,-3.361312 2.537925,-5.262075 l 0.157381,-0.52325 h -0.546406 -4.966 -0.5464059 l 0.1573809,0.52325 c 0.571513,1.900763 1.435444,3.668113 2.537926,5.262075 z m 3.3761,-7.572824 h 0.354574 l 0.04794,-0.351325 C 16.45614,14.790018 16.549902,13.911056 16.549902,13 c 0,-0.910813 -0.09368,-1.802612 -0.211818,-2.655738 L 16.289498,9.9937498 H 15.935655 9.8516544 9.4978106 L 9.4492232,10.344262 C 9.3310857,11.197388 9.2374044,12.089187 9.2374044,13 c 0,0.911056 0.093762,1.790018 0.2117376,2.654925 l 0.047937,0.351325 h 0.354575 z m -0.03242,6.628537 -0.494081,0.914144 0.983125,-0.336619 c 2.486331,-0.851257 4.552356,-2.580338 5.848537,-4.80805 l 0.355225,-0.610513 h -0.706387 -3.835 -0.315331 l -0.07824,0.305501 c -0.408362,1.5951 -0.994662,3.123737 -1.757844,4.535537 z m 2.255094,-7.0837 -0.05517,0.455163 h 0.458495 4.393999 0.3172 l 0.07695,-0.307694 C 23.564217,14.840719 23.699905,13.936243 23.699905,13 c 0,-0.936244 -0.135688,-1.840719 -0.350106,-2.698557 l -0.07695,-0.3076932 h -0.3172 -4.393999 -0.458495 l 0.05517,0.4551622 C 18.261433,11.2996 18.337401,12.1394 18.337401,13 c 0,0.8606 -0.07597,1.7004 -0.179075,2.551087 z M 0.29990463,13 c 0,-6.9521645 5.62964177,-12.59375001 12.58074937,-12.59375001 6.964913,0 12.60675,5.64238181 12.60675,12.59375001 0,6.951343 -5.641837,12.59375 -12.60675,12.59375 C 5.9295464,25.59375 0.29990463,19.952155 0.29990463,13 Z"
     fill="#ffffff"
     stroke="#121212"
     id="path133"
     style="stroke-width:0.8125" />
  <path
     d="m 21.996,34.20625 h 0.706388 L 22.347163,33.595697 C 21.050981,31.367984 18.984956,29.63896 16.498625,28.787655 L 15.5155,28.451053 16.009581,29.36518 c 0.763182,1.411792 1.349482,2.94047 1.757844,4.53557 l 0.07824,0.3055 h 0.315331 z M 13.3341,28.420901 13,27.937845 12.6659,28.420901 c -1.102481,1.593978 -1.966412,3.361345 -2.537925,5.262115 L 9.9705939,34.20625 H 10.517 15.483 16.029406 L 15.872025,33.683016 C 15.300513,31.782246 14.436581,30.014879 13.3341,28.420901 Z m -10.7902191,13.277655 0.07693,0.307694 h 0.317192 4.394 0.458469 l -0.05517,-0.455162 C 7.6321869,40.7004 7.5562509,39.8606 7.5562509,39 c 0,-0.8606 0.07594,-1.7004 0.179051,-2.551087 l 0.05517,-0.455163 h -0.458469 -4.394 -0.317192 l -0.07693,0.307694 C 2.3294209,37.159281 2.1937499,38.063756 2.1937499,39 c 0,0.936244 0.135671,1.840719 0.350131,2.698556 z m 1.460119,2.095194 h -0.704234 l 0.35256,0.609619 c 1.296766,2.242337 3.363636,3.958012 5.849049,4.808944 L 10.4845,49.548931 9.9904189,48.634788 c -0.763181,-1.4118 -1.349481,-2.940438 -1.757844,-4.535538 l -0.07824,-0.3055 h -0.315331 z m 3.835,-9.5875 h 0.315331 l 0.07824,-0.3055 c 0.408363,-1.5951 0.994663,-3.123778 1.757844,-4.53557 l 0.4940811,-0.914127 -0.9831251,0.336602 c -2.485413,0.850988 -4.552283,2.566639 -5.849049,4.808968 l -0.35256,0.609627 h 0.704234 z M 12.6659,49.579075 13,50.062188 13.3341,49.579075 c 1.102481,-1.593962 1.966413,-3.361312 2.537925,-5.262075 l 0.157381,-0.52325 H 15.483 10.517 9.9705939 L 10.127975,44.317 c 0.571513,1.900763 1.435444,3.668113 2.537925,5.262075 z M 16.042,42.00625 h 0.354575 l 0.04794,-0.351325 C 16.56249,40.790019 16.656252,39.911056 16.656252,39 c 0,-0.910812 -0.09368,-1.802612 -0.211819,-2.655737 L 16.395843,35.99375 H 16.041999 9.9579989 9.6041549 l -0.04859,0.350513 C 9.4374269,37.197388 9.3437459,38.089188 9.3437459,39 c 0,0.911056 0.09376,1.790019 0.211738,2.654925 l 0.04794,0.351325 h 0.354575 z m -0.03242,6.628538 -0.494081,0.914143 0.983125,-0.336618 c 2.486331,-0.851257 4.552356,-2.580338 5.848538,-4.80805 l 0.355225,-0.610513 h -0.706388 -3.835 -0.315331 l -0.07824,0.3055 c -0.408362,1.5951 -0.994662,3.123738 -1.757844,4.535538 z m 2.255094,-7.0837 -0.05517,0.455162 h 0.458494 4.394 0.3172 l 0.07694,-0.307694 C 23.670557,40.840719 23.806244,39.936244 23.806244,39 c 0,-0.936244 -0.135687,-1.840719 -0.350106,-2.698556 l -0.07694,-0.307694 h -0.3172 -4.394 -0.458494 l 0.05517,0.455163 C 18.36778,37.2996 18.443749,38.1394 18.443749,39 c 0,0.8606 -0.07597,1.7004 -0.179075,2.551088 z M 0.40625,39 c 0,-6.952164 5.6296419,-12.59375 12.58075,-12.59375 6.964913,0 12.60675,5.642382 12.60675,12.59375 0,6.951344 -5.641837,12.59375 -12.60675,12.59375 C 6.0358919,51.59375 0.40625,45.952156 0.40625,39 Z"
     fill="#ff15af"
     stroke="#121212"
     id="path2"
     style="stroke-width:0.8125" />
</svg>
