<svg width="32" height="32" viewBox="0 0 32 32" fill="none" xmlns="http://www.w3.org/2000/svg">
<path d="M27.072 10.1H27.9414L27.5042 9.34855C25.9089 6.60675 23.3661 4.47872 20.306 3.43096L19.096 3.01668L19.7041 4.14176C20.6434 5.87935 21.365 7.7608 21.8676 9.724L21.9639 10.1H22.352H27.072ZM16.4112 2.97957L16 2.38504L15.5888 2.97957C14.2319 4.94139 13.1686 7.11661 12.4652 9.45602L12.2715 10.1H12.944H19.056H19.7285L19.5348 9.45602C18.8314 7.11661 17.7681 4.94139 16.4112 2.97957ZM3.13093 19.3213L3.22561 19.7H3.616H9.024H9.58827L9.52037 19.1398C9.39346 18.0928 9.3 17.0592 9.3 16C9.3 14.9408 9.39346 13.9072 9.52037 12.8602L9.58827 12.3H9.024H3.616H3.22561L3.13093 12.6787C2.86698 13.7345 2.7 14.8477 2.7 16C2.7 17.1523 2.86698 18.2655 3.13093 19.3213ZM4.928 21.9H4.06125L4.49517 22.6503C6.09119 25.4101 8.63503 27.5217 11.694 28.569L12.904 28.9833L12.2959 27.8582C11.3566 26.1206 10.635 24.2392 10.1324 22.276L10.0361 21.9H9.648H4.928ZM9.648 10.1H10.0361L10.1324 9.724C10.635 7.7608 11.3566 5.87935 12.2959 4.14176L12.904 3.01668L11.694 3.43096C8.63503 4.47833 6.09119 6.5899 4.49517 9.34969L4.06125 10.1H4.928H9.648ZM15.5888 29.0204L16 29.615L16.4112 29.0204C17.7681 27.0586 18.8314 24.8834 19.5348 22.544L19.7285 21.9H19.056H12.944H12.2715L12.4652 22.544C13.1686 24.8834 14.2319 27.0586 15.5888 29.0204ZM19.744 19.7H20.1804L20.2394 19.2676C20.3846 18.2031 20.5 17.1213 20.5 16C20.5 14.879 20.3847 13.7814 20.2393 12.7314L20.1795 12.3H19.744H12.256H11.8205L11.7607 12.7314C11.6153 13.7814 11.5 14.879 11.5 16C11.5 17.1213 11.6154 18.2031 11.7606 19.2676L11.8196 19.7H12.256H19.744ZM19.7041 27.8582L19.096 28.9833L20.306 28.569C23.3661 27.5213 25.9089 25.3932 27.5042 22.6514L27.9414 21.9H27.072H22.352H21.9639L21.8676 22.276C21.365 24.2392 20.6434 26.1206 19.7041 27.8582ZM22.4796 19.1398L22.4117 19.7H22.976H28.384H28.7744L28.8691 19.3213C29.133 18.2655 29.3 17.1523 29.3 16C29.3 14.8477 29.133 13.7345 28.8691 12.6787L28.7744 12.3H28.384H22.976H22.4117L22.4796 12.8602C22.6065 13.9072 22.7 14.9408 22.7 16C22.7 17.0592 22.6065 18.0928 22.4796 19.1398ZM0.5 16C0.5 7.44349 7.42879 0.5 15.984 0.5C24.5562 0.5 31.5 7.44447 31.5 16C31.5 24.5555 24.5562 31.5 15.984 31.5C7.42879 31.5 0.5 24.5565 0.5 16Z" fill="#BDBDBD" stroke="#121212"/>
</svg>
