<?xml version="1.0" encoding="UTF-8" standalone="no"?>
<svg
   width="26"
   height="52"
   fill="#ffffff"
   viewBox="0 0 26 52"
   version="1.1"
   id="svg135"
   sodipodi:docname="link-icon (copy 1).svg"
   inkscape:version="1.2.2 (b0a8486541, 2022-12-01)"
   xmlns:inkscape="http://www.inkscape.org/namespaces/inkscape"
   xmlns:sodipodi="http://sodipodi.sourceforge.net/DTD/sodipodi-0.dtd"
   xmlns="http://www.w3.org/2000/svg"
   xmlns:svg="http://www.w3.org/2000/svg">
  <defs
     id="defs139" />
  <sodipodi:namedview
     id="namedview137"
     pagecolor="#ffffff"
     bordercolor="#666666"
     borderopacity="1.0"
     inkscape:showpageshadow="2"
     inkscape:pageopacity="0.0"
     inkscape:pagecheckerboard="0"
     inkscape:deskcolor="#d1d1d1"
     showgrid="false"
     inkscape:zoom="7.375"
     inkscape:cx="-8.9491525"
     inkscape:cy="16.20339"
     inkscape:window-width="1890"
     inkscape:window-height="1030"
     inkscape:window-x="15"
     inkscape:window-y="15"
     inkscape:window-maximized="1"
     inkscape:current-layer="svg135" />
  <path
     d="m 21.996,34.20625 h 0.706388 L 22.347163,33.595697 C 21.050981,31.367984 18.984956,29.63896 16.498625,28.787655 L 15.5155,28.451053 16.009581,29.36518 c 0.763182,1.411792 1.349482,2.94047 1.757844,4.53557 l 0.07824,0.3055 h 0.315331 z M 13.3341,28.420901 13,27.937845 12.6659,28.420901 c -1.102481,1.593978 -1.966412,3.361345 -2.537925,5.262115 L 9.9705939,34.20625 H 10.517 15.483 16.029406 L 15.872025,33.683016 C 15.300513,31.782246 14.436581,30.014879 13.3341,28.420901 Z m -10.7902191,13.277655 0.07693,0.307694 h 0.317192 4.394 0.458469 l -0.05517,-0.455162 C 7.6321869,40.7004 7.5562509,39.8606 7.5562509,39 c 0,-0.8606 0.07594,-1.7004 0.179051,-2.551087 l 0.05517,-0.455163 h -0.458469 -4.394 -0.317192 l -0.07693,0.307694 C 2.3294209,37.159281 2.1937499,38.063756 2.1937499,39 c 0,0.936244 0.135671,1.840719 0.350131,2.698556 z m 1.460119,2.095194 h -0.704234 l 0.35256,0.609619 c 1.296766,2.242337 3.363636,3.958012 5.849049,4.808944 L 10.4845,49.548931 9.9904189,48.634788 c -0.763181,-1.4118 -1.349481,-2.940438 -1.757844,-4.535538 l -0.07824,-0.3055 h -0.315331 z m 3.835,-9.5875 h 0.315331 l 0.07824,-0.3055 c 0.408363,-1.5951 0.994663,-3.123778 1.757844,-4.53557 l 0.4940811,-0.914127 -0.9831251,0.336602 c -2.485413,0.850988 -4.552283,2.566639 -5.849049,4.808968 l -0.35256,0.609627 h 0.704234 z M 12.6659,49.579075 13,50.062188 13.3341,49.579075 c 1.102481,-1.593962 1.966413,-3.361312 2.537925,-5.262075 l 0.157381,-0.52325 H 15.483 10.517 9.9705939 L 10.127975,44.317 c 0.571513,1.900763 1.435444,3.668113 2.537925,5.262075 z M 16.042,42.00625 h 0.354575 l 0.04794,-0.351325 C 16.56249,40.790019 16.656252,39.911056 16.656252,39 c 0,-0.910812 -0.09368,-1.802612 -0.211819,-2.655737 L 16.395843,35.99375 H 16.041999 9.9579989 9.6041549 l -0.04859,0.350513 C 9.4374269,37.197388 9.3437459,38.089188 9.3437459,39 c 0,0.911056 0.09376,1.790019 0.211738,2.654925 l 0.04794,0.351325 h 0.354575 z m -0.03242,6.628538 -0.494081,0.914143 0.983125,-0.336618 c 2.486331,-0.851257 4.552356,-2.580338 5.848538,-4.80805 l 0.355225,-0.610513 h -0.706388 -3.835 -0.315331 l -0.07824,0.3055 c -0.408362,1.5951 -0.994662,3.123738 -1.757844,4.535538 z m 2.255094,-7.0837 -0.05517,0.455162 h 0.458494 4.394 0.3172 l 0.07694,-0.307694 C 23.670557,40.840719 23.806244,39.936244 23.806244,39 c 0,-0.936244 -0.135687,-1.840719 -0.350106,-2.698556 l -0.07694,-0.307694 h -0.3172 -4.394 -0.458494 l 0.05517,0.455163 C 18.36778,37.2996 18.443749,38.1394 18.443749,39 c 0,0.8606 -0.07597,1.7004 -0.179075,2.551088 z M 0.40625,39 c 0,-6.952164 5.6296419,-12.59375 12.58075,-12.59375 6.964913,0 12.60675,5.642382 12.60675,12.59375 0,6.951344 -5.641837,12.59375 -12.60675,12.59375 C 6.0358919,51.59375 0.40625,45.952156 0.40625,39 Z"
     fill="#ff15af"
     stroke="#121212"
     id="path2"
     style="stroke-width:0.8125" />
  <path
     d="m 21.996,8.2062499 h 0.706388 L 22.347162,7.5956967 C 21.050981,5.3679843 18.984956,3.63896 16.498625,2.7876549 L 15.5155,2.4510525 16.009581,3.36518 c 0.763182,1.4117918 1.349481,2.9404699 1.757844,4.5355699 l 0.07824,0.3055 h 0.315332 z M 13.3341,2.4209006 13,1.937845 12.6659,2.4209006 c -1.102481,1.5939787 -1.966412,3.361345 -2.537925,5.2621155 L 9.9705938,8.2062499 H 10.517 15.483 16.029406 L 15.872025,7.6830161 C 15.300512,5.7822456 14.436581,4.0148793 13.3341,2.4209006 Z M 2.5438806,15.698556 2.6208081,16.00625 H 2.938 7.332 7.7904694 L 7.7353006,15.551087 C 7.6321863,14.7004 7.55625,13.8606 7.55625,13 c 0,-0.8606 0.075937,-1.7004 0.1790506,-2.551088 L 7.790469,9.9937495 H 7.332 2.938 2.6208081 L 2.5438811,10.301444 C 2.3294213,11.159281 2.19375,12.063756 2.19375,13 c 0,0.936243 0.1356713,1.840718 0.3501306,2.698556 z M 4.004,17.79375 H 3.2997656 l 0.35256,0.609619 c 1.2967663,2.242337 3.3636363,3.958012 5.8490494,4.808943 L 10.4845,23.548931 9.9904188,22.634787 C 9.2272375,21.222987 8.6409375,19.69435 8.232575,18.09925 L 8.154331,17.79375 H 7.839 Z M 7.839,8.2062499 h 0.3153313 l 0.078244,-0.3055 C 8.6409375,6.3056499 9.2272375,4.7769718 9.9904188,3.36518 L 10.4845,2.4510525 9.501375,2.7876549 C 7.0159619,3.638643 4.9490919,5.3542937 3.6523256,7.596623 l -0.35256,0.6096269 H 4.004 Z M 12.6659,23.579074 13,24.062187 13.3341,23.579074 c 1.102481,-1.593962 1.966412,-3.361312 2.537925,-5.262074 l 0.157381,-0.52325 H 15.483 10.517 9.9705938 L 10.127975,18.317 c 0.571513,1.900762 1.435444,3.668112 2.537925,5.262074 z M 16.042,16.00625 h 0.354575 l 0.04794,-0.351325 C 16.562488,14.790018 16.65625,13.911056 16.65625,13 c 0,-0.910813 -0.09368,-1.802613 -0.211819,-2.655738 L 16.39584,9.9937495 H 16.042 9.958 9.6041563 L 9.5555691,10.344262 C 9.4374312,11.197387 9.34375,12.089187 9.34375,13 c 0,0.911056 0.093762,1.790018 0.2117375,2.654925 l 0.047938,0.351325 h 0.354575 z m -0.03241,6.628537 -0.494081,0.914144 0.983125,-0.336619 c 2.486331,-0.851256 4.552356,-2.580337 5.848537,-4.80805 l 0.355226,-0.610512 h -0.706388 -3.835 -0.315332 l -0.07825,0.3055 c -0.408363,1.5951 -0.994662,3.123737 -1.757844,4.535537 z m 2.255095,-7.0837 -0.05516,0.455163 h 0.458494 4.394 0.3172 l 0.07694,-0.307694 C 23.670562,14.840718 23.80625,13.936243 23.80625,13 c 0,-0.936244 -0.135688,-1.840719 -0.350106,-2.698556 l -0.07694,-0.3076945 h -0.3172 -4.394 -0.458494 l 0.05516,0.4551625 C 18.36778,11.2996 18.443748,12.1394 18.443748,13 c 0,0.8606 -0.07597,1.7004 -0.179075,2.551087 z M 0.40624999,13 c 0,-6.9521645 5.62964191,-12.59375001 12.58075001,-12.59375001 6.964912,0 12.60675,5.64238181 12.60675,12.59375001 0,6.951344 -5.641838,12.59375 -12.60675,12.59375 C 6.0358919,25.59375 0.40624999,19.952156 0.40624999,13 Z"
     fill="#bdbdbd"
     stroke="#121212"
     id="path1216"
     style="stroke-width:0.8125" />
</svg>
