<svg width="34" height="34" viewBox="0 0 34 34" fill="none" xmlns="http://www.w3.org/2000/svg">
<path d="M0.619978 31.8776L2.12238 33.38C2.94901 34.2067 4.30054 34.2067 5.12717 33.38L12.9367 25.5705C15.0447 26.8732 17.5289 27.6254 20.1873 27.6254C27.8162 27.6254 34 21.4416 34 13.8127C34 6.18385 27.8162 0 20.1873 0C12.5584 0 6.37457 6.18385 6.37457 13.8127C6.37457 16.4711 7.12683 18.9553 8.42947 21.0633L0.619978 28.8728C-0.206659 29.6995 -0.206659 31.051 0.619978 31.8776ZM20.1873 23.3754C17.633 23.3754 15.2317 22.3808 13.4254 20.5746C11.6192 18.7683 10.6246 16.367 10.6246 13.8127C10.6246 11.2584 11.6192 8.85714 13.4254 7.05086C15.2317 5.24458 17.633 4.25007 20.1873 4.25007C22.7416 4.25007 25.1429 5.24458 26.9491 7.05086C28.7554 8.85714 29.7499 11.2584 29.7499 13.8127C29.7499 16.367 28.7554 18.7683 26.9491 20.5746C25.1429 22.3808 22.7416 23.3754 20.1873 23.3754Z" fill="white"/>
</svg>
