<svg width="75" height="66" viewBox="0 0 75 66" fill="none" xmlns="http://www.w3.org/2000/svg">
<path d="M74.9158 50.4927C75.007 50.767 75.007 51.064 74.9158 51.3383C74.863 51.6121 74.7336 51.8651 74.5419 52.0669L62.1831 65.1068C61.9107 65.3887 61.5849 65.6123 61.2252 65.7649C60.8645 65.924 60.4745 66.0041 60.0807 65.9998H1.4635C1.19204 66.0022 0.925219 65.9292 0.692536 65.7885C0.460008 65.6294 0.274391 65.41 0.155194 65.1542C0.0728724 64.8941 0.0728724 64.6151 0.155194 64.355C0.203641 64.0845 0.324842 63.833 0.505632 63.6269L12.8879 50.5865C13.1602 50.3051 13.4859 50.0815 13.8457 49.929C14.2058 49.7679 14.5965 49.6874 14.9905 49.694H73.5141C73.7964 49.6883 74.0741 49.7703 74.3082 49.929C74.5712 50.0379 74.7869 50.2378 74.9158 50.4927ZM62.2067 25.7282C61.9282 25.454 61.6038 25.2313 61.2488 25.0703C60.8843 24.9225 60.4967 24.8429 60.1039 24.8353H1.4635C1.18865 24.8394 0.920412 24.9208 0.689184 25.0703C0.457955 25.2198 0.272973 25.4314 0.155194 25.6812C0.0743865 25.9413 0.0743865 26.22 0.155194 26.48C0.19454 26.7534 0.316941 27.0078 0.505632 27.2084L12.8879 40.272C13.1663 40.5462 13.4905 40.7689 13.8457 40.93C14.2093 41.0797 14.5976 41.1593 14.9905 41.1649H73.5141C73.7964 41.1702 74.0741 41.0882 74.3082 40.93C74.5443 40.7916 74.7256 40.5761 74.8224 40.3189C74.9423 40.0692 74.9819 39.7878 74.9357 39.5145C74.8899 39.2406 74.7605 38.9881 74.5655 38.792L62.2067 25.7282ZM0.692536 16.0949C0.925219 16.2356 1.19204 16.3087 1.4635 16.3064H60.1039C60.4976 16.3105 60.8881 16.2304 61.2488 16.0714C61.6085 15.9188 61.9343 15.6951 62.2067 15.4136L74.5655 2.37341C74.7567 2.17164 74.8866 1.91881 74.9395 1.64504C75.0202 1.38497 75.0202 1.10627 74.9395 0.846191C74.8427 0.589334 74.6614 0.373693 74.4253 0.235316C74.1907 0.076995 73.9135 -0.0050559 73.6307 0.000344641H14.8971C14.503 -0.00595599 14.1124 0.0741999 13.7523 0.235316C13.3925 0.388 13.0668 0.611694 12.7944 0.893185L0.435548 13.9803C0.239577 14.1787 0.109067 14.433 0.0617411 14.7087C-0.0205804 14.9685 -0.0205804 15.2477 0.0617411 15.5075C0.213375 15.7587 0.431881 15.9622 0.692536 16.0949Z" fill="url(#paint0_linear_8_102)"/>
<defs>
<linearGradient id="paint0_linear_8_102" x1="6.33087" y1="67.5731" x2="66.7657" y2="-1.66703" gradientUnits="userSpaceOnUse">
<stop offset="0.08" stop-color="#9945FF"/>
<stop offset="0.3" stop-color="#8752F3"/>
<stop offset="0.5" stop-color="#5497D5"/>
<stop offset="0.6" stop-color="#43B4CA"/>
<stop offset="0.72" stop-color="#28E0B9"/>
<stop offset="0.97" stop-color="#19FB9B"/>
</linearGradient>
</defs>
</svg>
